<svg xmlns="http://www.w3.org/2000/svg" viewBox="0 0 129.977 130">
  <defs>
    <style>
      .cls-1 {
        fill: #e31d24;
      }

      .cls-2 {
        fill: #fff;
      }
    </style>
  </defs>
  <g id="class" transform="translate(-279 -1500)">
    <path id="Path_7" data-name="Path 7" class="cls-1" d="M11248,2737a64.107,64.107,0,0,1,45.976,19.007c11.02,12,19,28,19,45.993v48c0,10.007-6.987,17-16.976,17h-48a65,65,0,1,1,0-130Z" transform="translate(-10904 -1236.997)"/>
    <g id="Group_53" data-name="Group 53">
      <g id="Group_51" data-name="Group 51" transform="translate(1 -128)">
        <path id="Path_113" data-name="Path 113" class="cls-2" d="M62.457,48.639,62.1,46.554a7.626,7.626,0,0,0-6.541-6.227L52.48,39.7a8.432,8.432,0,0,1-2.9-1.186l-5.222-3.4A13.208,13.208,0,0,0,37.148,33H28.236a9.231,9.231,0,0,0-5.415,1.765L20.19,36.7a8.718,8.718,0,0,1-3.423,1.492l-4,.786a3.5,3.5,0,0,0-2.871,3.4v5.994a4.269,4.269,0,0,0,4.3,4.223H14.4a5.488,5.488,0,0,0,10.737,0H45.08a5.488,5.488,0,0,0,10.743,0h3.23a3.463,3.463,0,0,0,2.664-1.226A3.33,3.33,0,0,0,62.457,48.639ZM19.764,54.773a3.27,3.27,0,1,1,3.29-3.27,3.27,3.27,0,0,1-3.29,3.27Zm30.691,0a3.27,3.27,0,1,1,3.284-3.27,3.27,3.27,0,0,1-3.284,3.27Zm9.578-4.8a1.292,1.292,0,0,1-.979.446h-3.23a5.488,5.488,0,0,0-10.743,0H25.132a5.488,5.488,0,0,0-10.737,0H14.2a2.085,2.085,0,0,1-2.111-2.045V42.378a1.332,1.332,0,0,1,1.079-1.272l4-.786a10.8,10.8,0,0,0,4.3-1.872l2.664-1.932a7.013,7.013,0,0,1,4.109-1.332h8.912a10.956,10.956,0,0,1,5.994,1.778l5.242,3.364a10.463,10.463,0,0,0,3.657,1.5l3.17.666a5.455,5.455,0,0,1,4.709,4.423l.38,2.071a1.172,1.172,0,0,1-.266.986Z" transform="translate(299 1648)"/>
        <path id="Subtraction_5" data-name="Subtraction 5" class="cls-2" d="M25.259,23.951a5.487,5.487,0,0,1-5.371-4.362h-3a7.809,7.809,0,0,0,1.347-2.172h1.651a5.488,5.488,0,0,1,10.743,0h3.23a1.3,1.3,0,0,0,.979-.446,1.168,1.168,0,0,0,.266-.985l-.38-2.072a5.435,5.435,0,0,0-4.709-4.423l-3.171-.666a10.417,10.417,0,0,1-3.657-1.5L17.95,3.963a10.928,10.928,0,0,0-5.985-1.778H3.044a7.031,7.031,0,0,0-1.5.163C.725,1.891-.11,1.407-.937.909A9.286,9.286,0,0,1,3.044,0h8.963a13.174,13.174,0,0,1,7.161,2.111l5.222,3.4a8.406,8.406,0,0,0,2.9,1.186l3.083.625a7.627,7.627,0,0,1,6.54,6.228l.353,2.084a3.319,3.319,0,0,1-.739,2.724,3.458,3.458,0,0,1-2.646,1.226H30.632a5.489,5.489,0,0,1-5.372,4.362Zm.016-8.719h0a3.27,3.27,0,1,0,3.271,3.27,3.275,3.275,0,0,0-3.271-3.27Z" transform="translate(346.172 1681)"/>
      </g>
      <rect id="Rectangle_517" data-name="Rectangle 517" class="cls-2" width="76" height="1.727" rx="0.864" transform="translate(309 1579.227)"/>
      <path id="Rectangle_518" data-name="Rectangle 518" class="cls-2" d="M2,0H4A2,2,0,0,1,6,2V2A0,0,0,0,1,6,2H0A0,0,0,0,1,0,2V2A2,2,0,0,1,2,0Z" transform="translate(331 1551.227)"/>
      <path id="Rectangle_519" data-name="Rectangle 519" class="cls-2" d="M2,0H4A2,2,0,0,1,6,2V2A0,0,0,0,1,6,2H0A0,0,0,0,1,0,2V2A2,2,0,0,1,2,0Z" transform="translate(353 1551.227)"/>
    </g>
  </g>
</svg>
