<svg xmlns="http://www.w3.org/2000/svg" viewBox="0 0 102 130">
  <defs>
    <style>
      .cls-1, .cls-2 {
        fill: none;
      }

      .cls-2, .cls-3 {
    fill: none;
    stroke: #424242;
    stroke-width: 2px;
}

      .cls-3, .cls-4 {
        stroke: none;
      }

      .cls-4 {
    fill: none;
    stroke: #424242;
    stroke-width: 2px;
}
    </style>
  </defs>
  <g id="self" transform="translate(-968 -2630)">
    <g id="Group_58" data-name="Group 58" transform="translate(0 -91)">
      <g id="Path_121" data-name="Path 121" class="cls-1" transform="translate(968 2711)">
        <path class="cls-3" d="M0,31.538,52.063,10,102,31.538V80.769C102,120.354,51,140,51,140S0,119.3,0,80.769,0,31.538,0,31.538Z"/>
        <path class="cls-4" d="M 52.04626083374023 12.17111206054688 L 2 32.87545776367188 L 2 80.76923370361328 C 2 85.1434326171875 2.701164245605469 89.50425720214844 4.083999633789063 93.73059844970703 C 5.347457885742188 97.59210968017578 7.209548950195313 101.4337310791016 9.6185302734375 105.1487579345703 C 13.7159423828125 111.4676361083984 19.44936370849609 117.5417633056641 26.65953063964844 123.2024688720703 C 33.12316131591797 128.2770538330078 39.59527206420898 132.0674438476563 43.88650894165039 134.3535614013672 C 47.23916244506836 136.1396789550781 49.82019424438477 137.3115234375 51.01803207397461 137.8339385986328 C 53.88106918334961 136.6395568847656 64.62335205078125 131.8850250244141 75.27656555175781 123.6469116210938 C 82.49939727783203 118.0615081787109 88.2440185546875 112.0029449462891 92.35083770751953 105.6395111083984 C 94.76792907714844 101.8942718505859 96.63665771484375 98.00035095214844 97.90507507324219 94.06588745117188 C 99.295166015625 89.75405883789063 100 85.28041839599609 100 80.76923370361328 L 100 32.85396575927734 L 52.04626083374023 12.17111206054688 M 52.06249237060547 10 L 102 31.53847503662109 C 102 31.53847503662109 102 41.18407440185547 102 80.76923370361328 C 102 120.3543853759766 51.00003814697266 140 51.00003814697266 140 C 51.00003814697266 140 0 119.303092956543 0 80.76923370361328 C 0 42.23534393310547 0 31.53847503662109 0 31.53847503662109 L 52.06249237060547 10 Z"/>
      </g>
      <g id="Path_123" data-name="Path 123" class="cls-1" transform="translate(972 2717)">
        <path class="cls-3" d="M0,29.692,47.979,10,94,29.692V73.846C94,110.038,47,128,47,128S0,109.077,0,73.846,0,29.692,0,29.692Z"/>
        <path class="cls-4" d="M 47.96305847167969 12.16851043701172 L 2 31.03333282470703 L 2 73.84615325927734 C 2 77.82506561279297 2.642852783203125 81.79208374023438 3.910713195800781 85.63697814941406 C 5.06988525390625 89.15226745605469 6.778717041015625 92.65018463134766 8.989768981933594 96.0335693359375 C 12.75471496582031 101.7947387695313 18.02490234375 107.3342971801758 24.65390014648438 112.4983825683594 C 30.60101699829102 117.1312866210938 36.55696487426758 120.5922698974609 40.50616836547852 122.6798858642578 C 43.54372406005859 124.2855758666992 45.89320373535156 125.3477630615234 47.01793670654297 125.8358612060547 C 49.7298469543457 124.7100067138672 59.54552459716797 120.3785095214844 69.28263092041016 112.908317565918 C 75.92421722412109 107.8129806518555 81.20549774169922 102.28759765625 84.97976684570313 96.48567199707031 C 87.19886779785156 93.07438659667969 88.91429901123047 89.52835083007813 90.07838439941406 85.94608306884766 C 91.35346984863281 82.02220153808594 92 77.95120239257813 92 73.84615325927734 L 92 31.01190185546875 L 47.96305847167969 12.16851043701172 M 47.97916793823242 10 L 94 29.69229888916016 C 94 29.69229888916016 94 37.65399932861328 94 73.84615325927734 C 94 110.0382995605469 47.00003433227539 128 47.00003433227539 128 C 47.00003433227539 128 0 109.0771026611328 0 73.84615325927734 C 0 38.61518096923828 0 29.69229888916016 0 29.69229888916016 L 47.97916793823242 10 Z"/>
      </g>
      <path id="Union_9" data-name="Union 9" class="cls-2" d="M16.15,27.384a2.1,2.1,0,0,1-.364-.476l-.035-.033L.626,12a2.079,2.079,0,0,1,0-2.975,2.166,2.166,0,0,1,3.025,0L17.722,22.864,40.348.616a2.166,2.166,0,0,1,3.025,0,2.077,2.077,0,0,1,0,2.975l-24.2,23.793a2.164,2.164,0,0,1-3.025,0Z" transform="translate(1000 2770)"/>
    </g>
  </g>
</svg>
