<svg xmlns="http://www.w3.org/2000/svg" viewBox="0 0 122 30.714">
  <defs>
    <style>
      .cls-1 {
        fill: #eb190e;
      }

      .cls-2 {
        fill: #fff;
      }
    </style>
  </defs>
  <g id="Group_5" data-name="Group 5" transform="translate(-94 -79)">
    <path id="Path_1" data-name="Path 1" class="cls-1" d="M11194.282,2737a11.127,11.127,0,0,1,7.979,3.3,11.885,11.885,0,0,1,3.3,7.981v8.329a2.822,2.822,0,0,1-2.946,2.95h-8.329a11.28,11.28,0,1,1,0-22.559Zm-.173,17.7h.173a6.292,6.292,0,0,0,4.51-1.907,6.708,6.708,0,0,0,1.91-4.513h0a6.694,6.694,0,0,0-1.91-4.51,6.4,6.4,0,0,0-4.683-1.91,6.312,6.312,0,0,0-4.516,1.91,6.293,6.293,0,0,0,0,9.024,6.314,6.314,0,0,0,4.516,1.907Z" transform="translate(-11055.682 -2649.844)"/>
    <path id="Path_2" data-name="Path 2" class="cls-2" d="M12.665,2803.981a3.814,3.814,0,0,0-3.989-3.471,3.8,3.8,0,0,0-3.992,3.3,12.341,12.341,0,0,0-.173,2.6v9.719a2.152,2.152,0,0,1-2.255,2.082A2.151,2.151,0,0,1,0,2816.129v-11.452c0-5.9,3.817-8.677,8.676-8.677,2.428,0,5.032.867,6.248,3.3a7.085,7.085,0,0,1,6.423-3.3c4.859,0,8.676,2.774,8.676,8.677v11.452a2.263,2.263,0,0,1-4.511,0v-9.719c0-.521-.173-2.256-.173-2.6a3.8,3.8,0,0,0-3.992-3.3,3.812,3.812,0,0,0-3.989,3.471,6.433,6.433,0,0,0-.176,1.91v10.238a2.053,2.053,0,0,1-2.252,2.086,2.151,2.151,0,0,1-2.255-2.086v-10.238a7.035,7.035,0,0,0,0-1.91h-.009Z" transform="translate(94 -2708.669)"/>
    <path id="Path_3" data-name="Path 3" class="cls-2" d="M27724,2855.085a2.261,2.261,0,0,1,4.508,0v17.872a2.261,2.261,0,0,1-4.508,0Z" transform="translate(-27547.395 -2765.5)"/>
    <ellipse id="Ellipse_1" data-name="Ellipse 1" class="cls-2" cx="2.777" cy="2.777" rx="2.777" ry="2.777" transform="translate(176.087 79)"/>
    <path id="Path_4" data-name="Path 4" class="cls-2" d="M19838.678,2888.666a2.221,2.221,0,1,1,3.467-2.777l5.381,6.592,5.031-6.592a2.4,2.4,0,0,1,3.117-.345,2.088,2.088,0,0,1,.354,3.122l-5.73,7.285,5.9,7.462a2.269,2.269,0,0,1-.34,3.294,2.376,2.376,0,0,1-3.131-.346l-5.375-7.113-5.207,7.113a2.411,2.411,0,0,1-3.125.346,2.458,2.458,0,0,1-.52-3.294l5.9-7.462-5.727-7.285Z" transform="translate(-19684.977 -2797.519)"/>
    <path id="Path_5" data-name="Path 5" class="cls-2" d="M30882.66,2803.983a4.044,4.044,0,0,0-7.979-.173c0,.518-.176,2.082-.176,2.6v9.718a2.055,2.055,0,0,1-2.252,2.082,2.16,2.16,0,0,1-2.268-2.082v-11.453c0-5.9,3.824-8.676,8.688-8.676a7.066,7.066,0,0,1,6.414,3.295c1.221-2.427,3.816-3.295,6.248-3.295,4.863,0,8.674,2.773,8.674,8.676v11.453a2.257,2.257,0,0,1-4.5,0v-9.718a12.376,12.376,0,0,0-.172-2.6,3.817,3.817,0,0,0-4-3.3,3.933,3.933,0,0,0-3.988,3.471,7.23,7.23,0,0,0,0,1.909v10.238a2.261,2.261,0,0,1-4.508,0v-12.146Z" transform="translate(-30684.01 -2708.671)"/>
  </g>
</svg>